<svg xmlns="http://www.w3.org/2000/svg" viewBox="0 0 200 40">
  <path fill="#f3f3f3" d="m18.65 23.82-2.7 13.17c0 .42-3.53-12.6-3.4-13.03 2.7-7.79.43-11.33-1.83-11.33H5.48c0-1.27.28-5.52-2.41-9.63h12.89c-3.4 8.92.7 16 2.69 20.82zM17.37 3c1.85 4.25 1.42 8.78-.14 13.03-.28.85.29 2.97.85 2.83 1.42-3.82 1.99-5.8 5.53-6.23h4.81c-.57-1.13-2.4-4.39.14-9.63H17.37zM58.3 9.37c0-1.13-.28-4.39-1.7-6.37H31.11c-2.26 3.4-1.41 7.08.14 9.63h20.11c3.12 0 4.4 2.4 4.25 6.52-.14 1.84-1.41 4.67-2.4 6.09-.15.28 2.12 8.07 2.97 11.75l.28-.43c.57-.99 1.56-5.94 1.99-9.06.28-2.97-.85-6.37-1-8.07-.28-3.83 1-8.36.85-10.06zm38.1 8.5s-.42 3.82-1.98 7.93c-.57 2.55-.14 4.4.42 6.8.43 2.12 1 2.97 1.42 4.39h.57c3.25-7.65 2.83-11.47 0-19.12h-.43zM65.1 15.9 94 36.99c0-.57-1.42-4.4-1.85-6.37-.28-2.41-.14-3.12.29-5.38-3.4-2.27-5.95-4.4-10.34-7.23a2.88 2.88 0 0 1-.85-2.69c.14-1.41 1.41-2.69 2.69-2.69H92S89.03 7.82 92 3H80.4c0 1-.43 1.84-.43 3.4.14 1.7 1.28 3.11.57 5.66-.57 1.99-1.28 2.84-1.84 3.12L61.99 3h-2.27l-.14.14a15 15 0 0 1 1.41 7.93c-.28 3.4-.85 3.97-.85 6.94 0 3.12 1.14 5.8 1 8.92a42.64 42.64 0 0 1-1.7 9.63c-.15.43.14.43.14.43h13.88c-2.55-4.82-1.56-8.21-1.56-8.21h-5.24c-3.82.14-4.1-5.24-3.68-8.79.28-2.69 1.98-3.96 2.12-4.1zm59.06 3.54c-.7-2.98-.14-4.4 1.13-6.94.57-1.13.71-4.4.71-4.82 0 0-.14-4.67-2.4-4.67H94.83s-3.25 4.25 0 9.63h24.5c2.13-.14 2.7 2.55 2.7 4.53s-1 5.1-1.56 6.8c-.43 1.42 1.55 7.79 2.69 13.03h.42c.14-.43 2.27-11.33 2.13-12.89l-1.56-4.67zm17.04 17.55V33.6l3.45-.6V6.94l-3.38-.72V2.95h7.1c.88 0 1.64-.02 2.3-.05a847.85 847.85 0 0 0 3.92-.18 61.9 61.9 0 0 1 2.53-.04c2.66 0 4.96.35 6.9 1.04 1.93.7 3.52 1.72 4.77 3.07a12.66 12.66 0 0 1 2.76 5.01c.6 1.99.89 4.27.89 6.85 0 2.8-.39 5.36-1.16 7.68a17.7 17.7 0 0 1-3.27 5.96 14.23 14.23 0 0 1-5.1 3.81c-1.99.89-4.2 1.3-6.64 1.24a70.91 70.91 0 0 1-3.88-.2 96.96 96.96 0 0 0-3.96-.15h-7.22zm11.25-30.8v27.3c.45.19.97.3 1.55.35.58.06 1.22.07 1.93.06a6.9 6.9 0 0 0 3.42-.86 7.34 7.34 0 0 0 2.62-2.6 14.22 14.22 0 0 0 1.67-4.37c.4-1.74.6-3.8.6-6.15 0-2.18-.16-4.13-.49-5.86-.33-1.73-.84-3.2-1.55-4.4a7.47 7.47 0 0 0-2.74-2.78 8 8 0 0 0-4.04-.96 14.41 14.41 0 0 0-2.97.27zM184.3 37.5c-1.35 0-2.6-.1-3.75-.3a36.38 36.38 0 0 1-5.46-1.35 7.64 7.64 0 0 0-1.52-.36l.36-8.61h4.3l.95 5.57a4.48 4.48 0 0 0 1.6 1.08 7.6 7.6 0 0 0 2.99.55c.96 0 1.76-.12 2.4-.37a3.62 3.62 0 0 0 2.37-2.43 6.1 6.1 0 0 0 .24-1.72c0-.73-.16-1.4-.48-2s-.78-1.18-1.38-1.72c-.6-.55-1.34-1.08-2.2-1.61a55.87 55.87 0 0 0-2.97-1.67 34.5 34.5 0 0 1-2.63-1.55c-.94-.6-1.8-1.35-2.59-2.22-.78-.87-1.44-1.9-1.96-3.07a10.11 10.11 0 0 1-.09-7.56 8.17 8.17 0 0 1 2.13-2.9c.95-.84 2.14-1.51 3.58-2.01 1.44-.5 3.12-.75 5.07-.75.96 0 1.93.07 2.9.22a44.11 44.11 0 0 1 4.98 1.04c.65.18 1.14.3 1.46.35l-.27 7.8h-4.23l-.79-4.98a1.92 1.92 0 0 0-.53-.4 7.04 7.04 0 0 0-5.14-.43c-.58.2-1.05.49-1.4.83-.36.34-.61.74-.78 1.2a4.4 4.4 0 0 0-.24 1.48c0 .87.2 1.63.6 2.3.39.68.93 1.3 1.6 1.86.69.57 1.48 1.1 2.39 1.62.9.52 1.87 1.04 2.9 1.58.89.46 1.79 1 2.72 1.6.93.6 1.78 1.3 2.56 2.1s1.41 1.71 1.91 2.74c.5 1.03.74 2.2.74 3.51 0 1.18-.2 2.4-.61 3.65a9.16 9.16 0 0 1-2.06 3.42 10.84 10.84 0 0 1-3.8 2.53c-1.58.65-3.53.98-5.87.98z"/>
  <path fill="#2d2d2d" d="M148.98 14.87a13.46 13.46 0 0 0-22.02-4.4 13.41 13.41 0 0 0-2.94 14.66 13.46 13.46 0 0 0 22.02 4.4 13.41 13.41 0 0 0 2.94-14.66z"/>
  <path fill="#0b69ff" d="M147.9 15.32a12.3 12.3 0 0 0-20.12-4.02 12.25 12.25 0 0 0-2.68 13.38 12.3 12.3 0 0 0 20.12 4.02c3.52-3.5 4.58-8.8 2.68-13.38zm-4.25 11.15-10.95-8.03-.45.44-.44 1.12v2.23c.22.9.67 1.12 1.34 1.12h2c0 1.33 0 2.45.46 3.34h-5.14v-.22l.22-1.34.45-2.45-.23-1.79a7.57 7.57 0 0 1 0-2.9 10.2 10.2 0 0 0 0-3.12l-.44-1.34v-.22h.89a89.61 89.61 0 0 0 6.7 4.46l.45-.9v-1.1l-.22-1.12V13.3h4.47c-.45 1.11-.45 2.23.22 3.8h-3.35l-.45.44-.45.67v.66l.23.23c1.39.9 2.73 1.87 4.02 2.9l-.22 1.11c0 .77.15 1.53.44 2.23.13.38.28.76.45 1.12z"/>
</svg>
